<?xml version="1.0" encoding="utf-8"?>
<!-- Generator: Adobe Illustrator 27.2.0, SVG Export Plug-In . SVG Version: 6.00 Build 0)  -->
<svg version="1.1" id="katman_2" xmlns="http://www.w3.org/2000/svg" xmlns:xlink="http://www.w3.org/1999/xlink" x="0px" y="0px"
	 viewBox="0 0 128 128" style="enable-background:new 0 0 128 128;" xml:space="preserve">
<style type="text/css">
	.st0{fill:#1D1D1D;}
	.st1{fill:#A5443A;}
</style>
<path class="st0" d="M60.8,101L30.2,101c-1.2-7.9,1-14.3,7.9-19.4L29,80.9l0-46c0-2.2,1.5-5.4,3-6.5c1.7-1.2,4.8-1.4,7.2-1l57.8,0
	L97,72.2H53.2l-0.3,9.9C59.4,86.1,61.9,92.4,60.8,101z M55.9,95.9c0.1-6.5-3.7-8.4-7.8-11L48,71.1L39,71l0-36.1c0-1-1.6-2.9-2.5-2.9
	S34,33.9,34,34.8V76l9.1,0l-0.4,9.4c-5.2,1.9-8,5.8-7.3,10.6L55.9,95.9L55.9,95.9z M92,32H43v35.1h49C92,67.1,92,32,92,32z"/>
<rect x="43" y="32" class="st1" width="49" height="35.1"/>
<path class="st1" d="M55.9,95.9L35.5,96c-0.7-4.8,2.1-8.6,7.3-10.6l0.4-9.4L34,76V34.8c0-0.9,1.6-2.8,2.5-2.8s2.5,1.9,2.5,2.9
	l0,36.1l9,0.1l0.1,13.9C52.2,87.5,56,89.4,55.9,95.9L55.9,95.9z"/>
</svg>
