<?xml version="1.0" encoding="utf-8"?>
<!-- Generator: Adobe Illustrator 27.2.0, SVG Export Plug-In . SVG Version: 6.00 Build 0)  -->
<svg version="1.1" id="katman_1" xmlns="http://www.w3.org/2000/svg" xmlns:xlink="http://www.w3.org/1999/xlink" x="0px" y="0px"
	 viewBox="0 0 128 128" style="enable-background:new 0 0 128 128;" xml:space="preserve">
<style type="text/css">
	.st0{fill:#1D1D1D;}
	.st1{fill:#FFFFFF;}
</style>
<path class="st0" d="M87.7,123H40.4l-6.7-6.7l-3.8-0.1V59.5l3.9-0.1v-8.7l-3.9,0V19l3.9,0l0-6.5H50L55.2,5h17.6l5.2,7.4h16.2l0,6.5
	l3.9,0v31.8l-3.9,0v8.7l3.9,0v56.8l-3.8,0.1C94.3,116.3,87.7,123,87.7,123z M89.2,111.4h3.9l0-7.9v-5.6v-7.1l-3.9,0v-5.6l3.9,0V70.4
	v-5.9h-3.9l0-6.6l-3.7,0v-5.7l3.7,0v-6.4h3.9v-8.6l0-13.1h-3.9l0-6.5H75.3l-5.2-7.5H57.9l-5.2,7.5H38.8l0,6.5l-3.9,0v21.7l3.9,0v6.4
	l3.8,0v5.7l-3.7,0v6.6l-3.9,0.1v20.6l3.9,0v5.6l-3.9,0v20.7l3.9,0v2.9l3.7,3.7h43l3.7-3.7L89.2,111.4L89.2,111.4z"/>
<path class="st1" d="M89.2,111.4l0,3l-3.7,3.7h-43l-3.7-3.7v-2.9l-3.9,0V90.8l3.9,0v-5.6l-3.9,0V64.6l3.9-0.1v-6.6l3.7,0v-5.7
	l-3.7,0v-6.4l-3.9,0V24.1l3.9,0l0-6.5h13.8l5.2-7.5h12.3l5.2,7.5h13.9l0,6.5h3.9v13.1v8.6h-3.9v6.4l-3.7,0v5.7l3.7,0v6.6h3.9v5.9
	v14.7l-3.9,0v5.6l3.9,0v7.1v5.6l0,7.9L89.2,111.4L89.2,111.4z M74.8,36.2l6.7,0L78,31.1L67.3,15.8h-6.6L46.4,36.2l6.7,0L64,20.8
	L74.8,36.2L74.8,36.2z M62.1,56V45.8l-18.7,0L49.1,56L62.1,56L62.1,56z M79,56l5.6-10.2H65.9V56C65.9,56,79,56,79,56z M68,73.5
	c-2.4-2.3-4-4.2-7.2-5.2c-0.2-0.1-0.8,0-0.9,0.2c-0.6,1.2,1.6,4.5,2.6,5.5l2.4,2.5L68,73.5L68,73.5z M78.6,90.9l3.9-3.8
	c-0.1-0.5-0.6-0.7-1.1-0.6c-0.2-0.2-0.3-0.6-0.2-1l-9.8-9.8c-1.8-0.6-1.4-0.6-2.8-1.8l-3,3c0.4,0.4,0.9,0.8,1.2,1.3l0.7,1.5l9.2,9.3
	c0.8,0.8,1.2,0.1,1.4,0.6c0.1,0.1,0,0.4,0,0.6C77.9,90.6,78.4,91.1,78.6,90.9L78.6,90.9z M60.9,80.5c-1.3-1.4-2.5-2.5-3.8-3.5
	c-0.8-0.5-3.5-2.2-4.2-1.4c-0.6,0.7,1,3.4,1.6,4.2c1,1.4,2.2,2.5,3.4,3.8C57.9,83.5,60.9,80.5,60.9,80.5z M71.6,98l3.9-3.9
	c-0.1-0.2-0.3-0.6-0.4-0.6h-0.6c-0.3,0-0.3-0.7-0.3-1l-9.8-9.8c-0.5-0.2-1.1-0.3-1.5-0.6L61.5,81l-3,3c2.1,1.9,0.7,1.7,2.6,3.6
	l8.8,8.9c0.1,0.1,0.6,0.1,0.8,0.1C71.5,96.6,70.4,97.6,71.6,98L71.6,98z M53.9,87.5c-2.3-2.3-3.7-3.8-6.5-4.9
	c-0.4-0.2-1-0.2-1.4-0.1c-0.2,0.1-0.3,0.7-0.2,1c0.8,3,2.9,5,5.2,7.1L53.9,87.5L53.9,87.5z M64.5,105.1l3.9-3.9
	c-0.2-0.6-0.7-0.6-1.1-0.5c-0.2-0.1-0.3-0.7-0.3-1.1l-9.8-9.8c-1-0.4-2-0.8-2.7-1.8l-3.1,3.1c1,0.6,1.2,1.6,1.7,2.4
	c0.8,1.2,1.9,2.2,3,3.2l2.9,2.9l3.7,3.8c0.5,0.6,0.9,0.1,1.2,0.4C64.2,104,63.7,104.8,64.5,105.1L64.5,105.1z"/>
<polygon class="st0" points="74.8,36.2 64,20.8 53.1,36.3 46.4,36.2 60.7,15.8 67.3,15.8 78,31.1 81.6,36.2 "/>
<polygon class="st0" points="79,56 65.9,56 65.9,45.8 84.6,45.8 "/>
<polygon class="st0" points="62.1,56 49.1,56 43.5,45.8 62.1,45.8 "/>
<path class="st0" d="M71.6,98c-1.2-0.4-0.1-1.4-1-1.4c-0.2,0-0.6,0-0.8-0.1L61,87.7c-1.9-1.9-0.4-1.7-2.6-3.6l3-3l1.4,1.2
	c0.3,0.3,1,0.3,1.5,0.6l9.8,9.8c0,0.3,0.1,1,0.3,1H75c0.2,0,0.4,0.4,0.4,0.6L71.6,98L71.6,98z"/>
<path class="st0" d="M64.5,105.1c-0.8-0.3-0.4-1-0.6-1.3c-0.4-0.3-0.7,0.1-1.2-0.4L59,99.6l-2.9-2.9c-1-1-2.2-2-3-3.2
	c-0.5-0.9-0.6-1.8-1.7-2.4l3.1-3.1c0.7,1,1.7,1.4,2.7,1.8l9.8,9.8c0,0.4,0,1,0.3,1.1c0.5,0,1-0.1,1.1,0.5L64.5,105.1L64.5,105.1z"/>
<path class="st0" d="M78.6,90.9c-0.2,0.2-0.7-0.4-0.6-0.6c0-0.1,0-0.4,0-0.6c-0.2-0.5-0.6,0.2-1.4-0.6l-9.2-9.3l-0.7-1.5
	c-0.2-0.5-0.7-0.9-1.2-1.3l3-3c1.4,1.1,1,1.1,2.8,1.8l9.8,9.8c0,0.4,0,0.8,0.2,1c0.5-0.1,1,0.1,1.1,0.6L78.6,90.9L78.6,90.9z"/>
<path class="st0" d="M53.9,87.5l-3,3c-2.2-2.1-4.3-4.2-5.2-7.1c-0.1-0.2,0-0.9,0.2-1c0.4-0.2,1-0.1,1.4,0.1
	C50.2,83.7,51.6,85.2,53.9,87.5L53.9,87.5z"/>
<path class="st0" d="M68,73.5l-3.1,3L62.5,74c-1-1-3.2-4.3-2.6-5.5c0.1-0.2,0.7-0.3,0.9-0.2C63.9,69.3,65.6,71.1,68,73.5L68,73.5z"
	/>
<path class="st0" d="M60.9,80.5l-3,3c-1.3-1.3-2.4-2.4-3.4-3.8c-0.5-0.7-2.2-3.4-1.6-4.2c0.7-0.8,3.4,0.9,4.2,1.4
	C58.4,78,59.6,79.1,60.9,80.5z"/>
</svg>
